<?xml version="1.0" encoding="UTF-8" standalone="no"?>
<!-- Created with Inkscape (http://www.inkscape.org/) -->

<svg
   xmlns:dc="http://purl.org/dc/elements/1.1/"
   xmlns:cc="http://creativecommons.org/ns#"
   xmlns:rdf="http://www.w3.org/1999/02/22-rdf-syntax-ns#"
   xmlns:svg="http://www.w3.org/2000/svg"
   xmlns="http://www.w3.org/2000/svg"
   version="1.1"
   width="5000"
   height="5000"
   id="svg2"
   xml:space="preserve"><metadata
     id="metadata8"><rdf:RDF><cc:Work
         rdf:about=""><dc:format>image/svg+xml</dc:format><dc:type
           rdf:resource="http://purl.org/dc/dcmitype/StillImage" /><dc:title></dc:title></cc:Work></rdf:RDF></metadata><defs
     id="defs6"><clipPath
       id="clipPath24"><path
         d="m 0,4000 4000,0 L 4000,0 0,0 0,4000 z"
         id="path26" /></clipPath></defs><g
     transform="matrix(1.25,0,0,-1.25,0,5000)"
     id="g10"><g
       transform="translate(805.026,2503.0503)"
       id="g12"
       style="fill:#ef5b34;fill-opacity:1"><path
         d="M 0,0 874.451,-874.459 1099.235,-649.667 449.568,0 1099.235,649.683 874.451,874.451 0,0 z M 874.451,-1065.962 -191.487,0 874.451,1065.938 1290.73,649.683 641.055,0 1290.73,-649.667 874.451,-1065.962 z"
         id="path14"
         style="fill:#ef5b34;fill-opacity:1;fill-rule:nonzero;stroke:none" /></g><g
       transform="translate(2095.7393,1853.3838)"
       id="g16"
       style="fill:#ef5b34;fill-opacity:1"><path
         d="M 0,0 224.776,-224.792 1099.218,649.667 224.776,1524.117 0.017,1299.35 649.699,649.667 0,0 z M 224.776,-416.296 -191.479,0 458.196,649.667 -191.479,1299.35 224.776,1715.604 1290.721,649.667 224.776,-416.296 z"
         id="path18"
         style="fill:#ef5b34;fill-opacity:1;fill-rule:nonzero;stroke:none" /></g><g
       id="g20"
       style="fill:#ef5b34;fill-opacity:1"><g
         clip-path="url(#clipPath24)"
         id="g22"
         style="fill:#ef5b34;fill-opacity:1"><g
           transform="translate(1272.7834,827.6776)"
           id="g28"
           style="fill:#ef5b34;fill-opacity:1"><path
             d="M 0,0 C 86.729,0 136.448,42.3 136.448,111.057 136.448,180.863 84.63,221.094 0,221.094 l -114.22,0 L -114.22,0 0,0 z m 3.192,358.577 c 177.714,0 285.579,-93.099 285.579,-247.52 0,-155.485 -107.865,-248.541 -285.579,-248.541 l -117.412,0 0,-244.386 -147.061,0 0,740.447 264.473,0 z"
             id="path30"
             style="fill:#ef5b34;fill-opacity:1;fill-rule:nonzero;stroke:none" /></g><g
           transform="translate(2181.3979,966.2554)"
           id="g32"
           style="fill:#ef5b34;fill-opacity:1"><path
             d="m 0,0 c -39.153,55.01 -113.186,89.891 -186.169,89.891 -138.578,0 -230.598,-99.409 -230.598,-240.1 0,-144.889 98.347,-238.032 230.598,-238.032 84.63,0 162.89,44.458 199.928,108.957 l 148.081,-39.093 c -61.38,-131.201 -192.494,-216.866 -348.009,-216.866 -212.611,0 -383.984,161.811 -383.984,385.034 0,223.191 171.373,385.018 383.984,385.018 145.982,0 270.813,-77.225 336.363,-195.672 L 0,0 z"
             id="path34"
             style="fill:#ef5b34;fill-opacity:1;fill-rule:nonzero;stroke:none" /></g><g
           transform="translate(2838.2939,960.978)"
           id="g36"
           style="fill:#ef5b34;fill-opacity:1"><path
             d="m 0,0 c -16.968,74.033 -81.453,112.121 -147.046,112.121 -67.708,0 -111.087,-32.797 -111.087,-77.24 0,-59.224 83.551,-80.418 176.68,-112.121 107.865,-37.024 231.647,-94.164 231.647,-226.385 0,-132.206 -114.249,-226.341 -283.494,-226.341 -155.515,0 -262.33,87.794 -302.548,222.114 l 141.755,38.103 c 15.875,-66.658 75.098,-129.059 167.117,-129.059 79.37,0 120.576,39.123 120.576,88.828 0,75.141 -100.489,93.113 -205.191,130.122 -87.793,31.748 -197.8,77.227 -197.8,206.27 0,115.314 114.249,213.674 270.813,213.674 C 0,240.086 109.978,155.5 141.711,39.123 L 0,0 z"
             id="path38"
             style="fill:#ef5b34;fill-opacity:1;fill-rule:nonzero;stroke:none" /></g></g></g></g></svg>